<svg width="18" height="18" viewBox="0 0 18 18" fill="none" xmlns="http://www.w3.org/2000/svg">
<g clip-path="url(#clip0_666_10191)">
<path d="M10.125 1.125C5.80966 1.1376 2.2626 4.68466 2.25 9L12.2271 11.1021L10.125 1.125Z" fill="#ED6C47"/>
<path d="M10.125 1.125C14.4403 1.1376 17.9874 4.68466 18 9L14.0625 11.6764L10.125 9V1.125Z" fill="#FF8F6B"/>
<path d="M10.125 16.875C14.4403 16.8624 17.9874 13.3153 18 9H2.25C2.2626 13.3153 5.80966 16.8624 10.125 16.875Z" fill="#D35230"/>
<path d="M9.3748 3.9375H4.10922C1.45594 7.06402 1.68667 11.7728 4.63286 14.625H9.37537C9.78618 14.6238 10.1239 14.286 10.1252 13.8752V4.68785C10.1239 4.27696 9.78618 3.9393 9.37537 3.93807L9.3748 3.9375Z" fill="black" fill-opacity="0.098039"/>
<path d="M8.81204 4.5H3.67754C1.28322 7.89758 1.99364 12.6406 5.2784 15.1875H8.81204C9.22294 15.1863 9.5606 14.8485 9.56183 14.4377V5.25035C9.5606 4.83946 9.22294 4.5018 8.81204 4.50057V4.5ZM8.81204 4.5H3.67754C1.6298 7.40332 1.80792 11.3551 4.1084 14.0625H8.81147C9.22228 14.0613 9.56002 13.7235 9.56125 13.3127V5.25035C9.56002 4.83946 9.22228 4.5018 8.81147 4.50057L8.81204 4.5ZM8.24954 4.5H3.67754C1.6298 7.40332 1.80792 11.3551 4.1084 14.0625H8.24897C8.65978 14.0613 8.99752 13.7235 8.99875 13.3127V5.25035C8.99752 4.83946 8.65978 4.5018 8.24897 4.50057L8.24954 4.5Z" fill="black" fill-opacity="0.2"/>
<path d="M0.749782 4.5H8.24965C8.66095 4.5 8.99943 4.83848 8.99943 5.24978V12.7496C8.99943 13.1609 8.66095 13.4994 8.24965 13.4994H0.749782C0.338482 13.4994 0 13.1609 0 12.7496V5.24978C0 4.83848 0.338482 4.5 0.749782 4.5Z" fill="#C43E1C"/>
<path d="M4.49828 6.18741C5.05203 6.15018 5.60144 6.31063 6.048 6.64019C6.41888 6.97123 6.61745 7.45527 6.58571 7.95141C6.59176 8.26927 6.49882 8.58133 6.31972 8.84413C6.13735 9.13483 5.87479 9.36678 5.56372 9.51177C5.20806 9.67671 4.81942 9.75804 4.42743 9.74969H3.3525V11.8118H2.25V6.18684L4.49828 6.18741ZM3.3525 8.82163H4.30143C4.60203 8.84356 4.9005 8.7547 5.14015 8.57184C5.33389 8.44723 5.4432 8.22485 5.42365 7.99527C5.42365 7.3732 5.06135 7.06213 4.33685 7.06213H3.3525V8.82163Z" fill="#F9F7F7"/>
</g>
<defs>
<clipPath id="clip0_666_10191">
<rect width="18" height="18" fill="white"/>
</clipPath>
</defs>
</svg>
