<svg
  width="18"
  height="18"
  viewBox="0 0 18 18"
  fill="none"
  xmlns="http://www.w3.org/2000/svg"
>
  <path
    fillRule="evenodd"
    clipRule="evenodd"
    d="M17.6404 9.20468C17.6404 8.5665 17.5831 7.95286 17.4767 7.36377H9.00037V10.8451H13.844C13.6354 11.9701 13.0013 12.9233 12.0481 13.5615V15.8197H14.9567C16.6585 14.2529 17.6404 11.9456 17.6404 9.20468Z"
    fill="#4285F4"
  />
  <path
    fillRule="evenodd"
    clipRule="evenodd"
    d="M9.00013 18C11.4301 18 13.4674 17.1941 14.9565 15.8195L12.0479 13.5613C11.2419 14.1013 10.211 14.4204 9.00013 14.4204C6.65603 14.4204 4.67194 12.8372 3.96422 10.71H0.957397V13.0418C2.43831 15.9831 5.48194 18 9.00013 18Z"
    fill="#34A853"
  />
  <path
    fillRule="evenodd"
    clipRule="evenodd"
    d="M3.96409 10.7098C3.78409 10.1698 3.68182 9.59301 3.68182 8.99983C3.68182 8.40664 3.78409 7.82983 3.96409 7.28983V4.95801H0.957273C0.347727 6.17301 0 7.54755 0 8.99983C0 10.4521 0.347727 11.8266 0.957273 13.0416L3.96409 10.7098Z"
    fill="#FBBC05"
  />
  <path
    fillRule="evenodd"
    clipRule="evenodd"
    d="M9.00013 3.57955C10.3215 3.57955 11.5079 4.03364 12.4406 4.92545L15.0219 2.34409C13.4633 0.891818 11.426 0 9.00013 0C5.48194 0 2.43831 2.01682 0.957397 4.95818L3.96422 7.29C4.67194 5.16273 6.65603 3.57955 9.00013 3.57955Z"
    fill="#EA4335"
  />
</svg>